<svg xmlns="http://www.w3.org/2000/svg" width="260" height="260" viewBox="0 0 260 260"><g transform="translate(45 45) rotate(-20) scale(1.2)" fill="#bdbdbd"><ellipse cx="0" cy="6" rx="10" ry="8"/><ellipse cx="-11" cy="-3" rx="4.5" ry="6"/><ellipse cx="-4" cy="-11" rx="4.5" ry="6.5"/><ellipse cx="4" cy="-11" rx="4.5" ry="6.5"/><ellipse cx="11" cy="-3" rx="4.5" ry="6"/></g><g transform="translate(150 40) rotate(35) scale(1.3)" fill="#d3d3d3"><rect x="-15" y="-3.5" width="30" height="7" rx="3"/><circle cx="-16" cy="-4.5" r="5"/><circle cx="-16" cy="4.5" r="5"/><circle cx="16" cy="-4.5" r="5"/><circle cx="16" cy="4.5" r="5"/></g><g transform="translate(225 95) rotate(25) scale(1.1)" fill="#d3d3d3"><ellipse cx="0" cy="6" rx="10" ry="8"/><ellipse cx="-11" cy="-3" rx="4.5" ry="6"/><ellipse cx="-4" cy="-11" rx="4.5" ry="6.5"/><ellipse cx="4" cy="-11" rx="4.5" ry="6.5"/><ellipse cx="11" cy="-3" rx="4.5" ry="6"/></g><g transform="translate(50 140) rotate(-40) scale(1.2)" fill="#bdbdbd"><rect x="-15" y="-3.5" width="30" height="7" rx="3"/><circle cx="-16" cy="-4.5" r="5"/><circle cx="-16" cy="4.5" r="5"/><circle cx="16" cy="-4.5" r="5"/><circle cx="16" cy="4.5" r="5"/></g><g transform="translate(150 150) rotate(10) scale(1.4)" fill="#bdbdbd"><ellipse cx="0" cy="6" rx="10" ry="8"/><ellipse cx="-11" cy="-3" rx="4.5" ry="6"/><ellipse cx="-4" cy="-11" rx="4.5" ry="6.5"/><ellipse cx="4" cy="-11" rx="4.5" ry="6.5"/><ellipse cx="11" cy="-3" rx="4.5" ry="6"/></g><g transform="translate(225 205) rotate(60) scale(1.2)" fill="#d3d3d3"><rect x="-15" y="-3.5" width="30" height="7" rx="3"/><circle cx="-16" cy="-4.5" r="5"/><circle cx="-16" cy="4.5" r="5"/><circle cx="16" cy="-4.5" r="5"/><circle cx="16" cy="4.5" r="5"/></g><g transform="translate(50 225) rotate(-30) scale(1.0)" fill="#d3d3d3"><ellipse cx="0" cy="6" rx="10" ry="8"/><ellipse cx="-11" cy="-3" rx="4.5" ry="6"/><ellipse cx="-4" cy="-11" rx="4.5" ry="6.5"/><ellipse cx="4" cy="-11" rx="4.5" ry="6.5"/><ellipse cx="11" cy="-3" rx="4.5" ry="6"/></g><g transform="translate(140 235) rotate(-15) scale(1.0)" fill="#bdbdbd"><rect x="-15" y="-3.5" width="30" height="7" rx="3"/><circle cx="-16" cy="-4.5" r="5"/><circle cx="-16" cy="4.5" r="5"/><circle cx="16" cy="-4.5" r="5"/><circle cx="16" cy="4.5" r="5"/></g></svg>
